<svg width="24" height="24" viewBox="0 0 24 24" fill="none" xmlns="http://www.w3.org/2000/svg">
<path d="M11.1483 12.8518H5.70234C5.46184 12.8518 5.25975 12.7694 5.09609 12.6048C4.93242 12.4403 4.85059 12.2372 4.85059 11.9955C4.85059 11.754 4.93242 11.5524 5.09609 11.3908C5.25975 11.2291 5.46184 11.1483 5.70234 11.1483H11.1483V5.70226C11.1483 5.46226 11.2307 5.25935 11.3953 5.09351C11.5598 4.92751 11.7629 4.84451 12.0046 4.84451C12.2461 4.84451 12.4477 4.92751 12.6093 5.09351C12.771 5.25935 12.8518 5.46226 12.8518 5.70226V11.1483H18.2978C18.5378 11.1483 18.7408 11.2306 18.9066 11.3953C19.0726 11.5598 19.1556 11.7628 19.1556 12.0045C19.1556 12.246 19.0726 12.4476 18.9066 12.6093C18.7408 12.7709 18.5378 12.8518 18.2978 12.8518H12.8518V18.2978C12.8518 18.5383 12.7695 18.7403 12.6048 18.904C12.4403 19.0677 12.2373 19.1495 11.9956 19.1495C11.7541 19.1495 11.5525 19.0677 11.3908 18.904C11.2292 18.7403 11.1483 18.5383 11.1483 18.2978V12.8518Z" fill="#02060A"/>
</svg>
